<svg width="61" height="62" viewBox="0 0 61 62" fill="none" xmlns="http://www.w3.org/2000/svg">
<g filter="url(#filter0_d_108_76)">
<path fill-rule="evenodd" clip-rule="evenodd" d="M30.5 49.7122C41.8218 49.7122 51 40.534 51 29.2122C51 17.8903 41.8218 8.71216 30.5 8.71216C19.1782 8.71216 10 17.8903 10 29.2122C10 40.534 19.1782 49.7122 30.5 49.7122Z" fill="white"/>
</g>
<path d="M39 25.2763C38.405 25.4927 37.771 25.6362 37.11 25.7058C37.79 25.3692 38.309 24.8401 38.553 24.2023C37.919 24.5158 37.219 24.7372 36.473 24.8608C35.871 24.3292 35.013 24 34.077 24C32.261 24 30.799 25.2224 30.799 26.7209C30.799 26.9365 30.821 27.1438 30.875 27.3412C28.148 27.2309 25.735 26.147 24.114 24.4959C23.831 24.9031 23.665 25.3692 23.665 25.8709C23.665 26.8129 24.25 27.648 25.122 28.1315C24.595 28.1232 24.078 27.9963 23.64 27.7965C23.64 27.8048 23.64 27.8156 23.64 27.8263C23.64 29.1482 24.777 30.2462 26.268 30.4991C26.001 30.5597 25.71 30.5887 25.408 30.5887C25.198 30.5887 24.986 30.5788 24.787 30.5423C25.212 31.6195 26.418 32.4115 27.852 32.4372C26.736 33.1612 25.319 33.5974 23.785 33.5974C23.516 33.5974 23.258 33.5874 23 33.56C24.453 34.3371 26.175 34.7808 28.032 34.7808C34.068 34.7808 37.368 30.6343 37.368 27.0402C37.368 26.9199 37.363 26.8038 37.356 26.6886C38.007 26.3054 38.554 25.8269 39 25.2763Z" fill="#080809"/>
<defs>
<filter id="filter0_d_108_76" x="0" y="0.712158" width="61" height="61" filterUnits="userSpaceOnUse" color-interpolation-filters="sRGB">
<feFlood flood-opacity="0" result="BackgroundImageFix"/>
<feColorMatrix in="SourceAlpha" type="matrix" values="0 0 0 0 0 0 0 0 0 0 0 0 0 0 0 0 0 0 127 0" result="hardAlpha"/>
<feOffset dy="2"/>
<feGaussianBlur stdDeviation="5"/>
<feColorMatrix type="matrix" values="0 0 0 0 0 0 0 0 0 0 0 0 0 0 0 0 0 0 0.1 0"/>
<feBlend mode="normal" in2="BackgroundImageFix" result="effect1_dropShadow_108_76"/>
<feBlend mode="normal" in="SourceGraphic" in2="effect1_dropShadow_108_76" result="shape"/>
</filter>
</defs>
</svg>
